<svg width="40" height="48" viewBox="0 0 40 48" fill="none" xmlns="http://www.w3.org/2000/svg">
<g clip-path="url(#clip0)">
<path d="M12.1308 29.7056L10.2221 34.0444C10.1 34.3209 9.82404 34.5 9.51538 34.5H2.30865C1.03462 34.5 0 35.5078 0 36.75C0 37.9922 1.03462 39 2.30865 39H9.51538C11.6721 39 13.6163 37.7522 14.4673 35.8181L15.7702 32.8556L14.851 32.3147C13.7087 31.6416 12.8106 30.7331 12.1308 29.7056V29.7056ZM26.1683 9C28.7183 9 30.7865 6.98531 30.7865 4.5C30.7865 2.01469 28.7192 0 26.1683 0C23.6173 0 21.55 2.01469 21.55 4.5C21.55 6.98531 23.6183 9 26.1683 9ZM37.6981 22.5525L33.0442 22.5366C32.7048 22.5347 32.4096 22.3209 32.3125 22.0059L30.9712 17.7009C30.0875 14.8706 27.7 12.7069 24.7385 12.0544L17.2144 10.395C14.7404 9.84562 12.1712 10.4025 10.1702 11.9156L5.51923 15.4181C4.51058 16.1766 4.32404 17.5903 5.10481 18.5737C5.88173 19.5581 7.33846 19.7372 8.34327 18.9778L12.9962 15.4753C13.9058 14.7881 15.0808 14.5453 16.1981 14.7834L17.6288 15.0994L14.2346 23.2884C13.2394 25.6903 14.1683 28.4063 16.4442 29.7488L24.5 34.4906C24.6445 34.5759 24.7562 34.7052 24.8179 34.8585C24.8796 35.0119 24.8878 35.1807 24.8413 35.3391L21.6394 45.1331C21.2894 46.3284 21.999 47.5734 23.225 47.9147C23.4365 47.9728 23.65 48.0009 23.8606 48.0009C24.8644 48.0009 25.7894 47.3578 26.0798 46.3688L29.2817 36.5747C29.9481 34.3013 28.9635 31.8609 26.8875 30.6375L21.9019 27.7031L25.9346 17.8781C26.1962 18.2194 26.4212 18.5897 26.5519 19.0097L27.8942 23.3166C28.5875 25.5347 30.651 27.03 33.0298 27.0375L37.6837 27.0534H37.6913C38.9635 27.0534 39.9962 26.0512 40 24.8109C40.0048 23.5678 38.975 22.5572 37.6981 22.5525V22.5525Z" fill="url(#paint0_linear)"/>
</g>
<defs>
<linearGradient id="paint0_linear" x1="20" y1="0" x2="20" y2="48.0009" gradientUnits="userSpaceOnUse">
<stop stop-color="#E7576A"/>
<stop offset="1" stop-color="#F5B94D"/>
</linearGradient>
<clipPath id="clip0">
<rect width="40" height="48" fill="white"/>
</clipPath>
</defs>
</svg>
